<svg width="155" height="28" viewBox="0 0 155 28" fill="none" xmlns="http://www.w3.org/2000/svg">
<path d="M42.72 6C45.8025 6 47.3905 7.7024 47.3905 7.7024L46.7366 8.64818C46.7366 8.64818 45.2421 7.13493 42.72 7.13493C39.6374 7.13493 37.489 9.49938 37.489 12.715C37.489 15.8361 39.6374 18.4843 42.8134 18.4843C45.4289 18.4843 47.0169 16.6873 47.0169 16.6873L47.7642 17.6331C47.7642 17.6331 45.9894 19.7138 42.72 19.7138C38.8902 19.7138 36.0878 16.6873 36.0878 12.8096C36.0878 8.93191 38.9836 6 42.72 6Z" fill="#131313"/>
<path d="M55.7981 5.99994C59.5345 5.99994 62.4302 8.93185 62.4302 12.715C62.4302 16.5927 59.4411 19.6191 55.7981 19.6191C52.0616 19.6191 49.1659 16.5927 49.1659 12.715C49.1659 9.02643 52.155 5.99994 55.7981 5.99994ZM55.7981 18.4842C58.6938 18.4842 61.1225 16.0252 61.1225 12.715C61.1225 9.5939 58.7872 7.13487 55.7981 7.13487C52.8089 7.13487 50.4736 9.49932 50.4736 12.715C50.4736 16.0252 52.9023 18.4842 55.7981 18.4842Z" fill="#131313"/>
<path d="M65.045 6.28351H66.2593L72.8915 15.7413C73.3586 16.4033 74.0124 17.5383 74.0124 17.5383C74.0124 17.5383 73.919 16.4033 73.919 15.7413V6.28351H75.2268V19.5244H74.0124L67.2869 9.97204C66.8198 9.31 66.1659 8.17506 66.1659 8.17506C66.1659 8.17506 66.2593 9.31 66.2593 9.97204V19.5244H64.9516L65.045 6.28351Z" fill="#131313"/>
<path d="M81.5782 7.41844H76.9077V6.28351H87.5565V7.41844H82.886V19.5244H81.5782V7.41844Z" fill="#131313"/>
<path d="M99.4198 6.28351H103.904C105.959 6.28351 107.453 7.51302 107.453 9.59373C107.453 11.0124 106.799 11.9582 105.772 12.4311C107.079 12.8094 107.92 14.1335 107.92 15.7413C107.92 18.1057 106.145 19.4298 103.997 19.4298H99.4198V6.28351V6.28351ZM103.904 11.9582C105.211 11.9582 106.145 11.0124 106.145 9.59373C106.145 8.26964 105.305 7.32386 103.904 7.32386H100.728V11.9582H103.904ZM104.09 18.2949C105.678 18.2949 106.612 17.2545 106.612 15.7413C106.612 14.1335 105.585 13.0931 103.997 13.0931H100.634V18.2949H104.09Z" fill="#131313"/>
<path d="M110.723 6.28351H112.031V19.5244H110.723V6.28351Z" fill="#131313"/>
<path d="M115.393 6.28351H116.701V18.3895H122.772V19.5244H115.393V6.28351Z" fill="#131313"/>
<path d="M124.734 6.28351H126.042V19.5244H124.734V6.28351Z" fill="#131313"/>
<path d="M129.218 6.28351H130.526V14.8901C130.526 17.16 132.021 18.5786 134.262 18.5786C136.504 18.5786 137.999 17.16 137.999 14.8901V6.28351H139.307V14.8901C139.307 17.822 137.252 19.7136 134.356 19.7136C131.367 19.7136 129.312 17.822 129.312 14.8901L129.218 6.28351Z" fill="#131313"/>
<path d="M143.137 6.28351H144.444L147.901 14.0389C148.181 14.7009 148.554 15.6467 148.554 15.6467C148.554 15.6467 148.928 14.7009 149.208 14.0389L152.665 6.28351H153.972L155 19.5244H153.692L152.945 10.2558C152.851 9.49915 152.945 8.36422 152.945 8.36422C152.945 8.36422 152.571 9.49915 152.291 10.2558L149.208 17.0654H147.994L144.911 10.2558C144.631 9.59373 144.164 8.36422 144.164 8.36422C144.164 8.36422 144.164 9.49915 144.164 10.2558L143.417 19.5244H142.109L143.137 6.28351Z" fill="#131313"/>
<path d="M92.8814 6.28351H91.4803L86.7163 19.5244H88.1175L89.0516 16.7816V16.6871L89.5186 15.2684L89.8923 14.1335L91.6671 9.31C91.8539 8.64795 92.1341 7.6076 92.1341 7.6076C92.1341 7.6076 92.4144 8.74253 92.6012 9.31L93.7221 12.5256V12.6202L94.2826 14.1335L95.2167 16.6871L96.2442 19.4298H97.6454L92.8814 6.28351Z" fill="#131313"/>
<path d="M1.73913 20.5141C0.695652 19.8978 0 18.7532 0 17.4325V13.0304V11.7978L1.04348 12.5021L12 18.9293L22.9565 12.5021C23.0435 12.5021 23.1304 12.5021 23.1304 12.5021C23.5652 12.5021 24 12.8543 24 13.3826V17.6086C24 18.7532 23.3913 19.8097 22.4348 20.426L13.7391 25.4445C13.2174 25.7966 12.6087 25.9727 11.913 25.9727C11.3043 25.9727 10.6957 25.7966 10.1739 25.5325L1.73913 20.5141Z" fill="#FF2569"/>
<path d="M1.74573 12.9423L6.44138 10.213L11.9196 7.04344L17.224 10.1249C17.3979 10.213 17.6588 10.301 17.9196 10.301C18.0936 10.301 18.2675 10.301 18.4414 10.213L23.3109 7.65974C23.6588 7.5717 23.9196 7.21953 23.9196 6.86736C23.9196 6.51518 23.6588 6.25105 23.3979 6.07497L13.6588 0.440215C13.137 0.176086 12.5283 0 11.9196 0C11.3109 0 10.7023 0.176086 10.1805 0.440215L1.74573 5.37063C0.702252 5.98693 0.0065999 7.13148 0.0065999 8.45213V16.0238C-0.0803566 14.7032 0.702252 13.5586 1.74573 12.9423Z" fill="#00C7AF"/>
</svg>
