<svg width="161" height="30" viewBox="0 0 161 30" fill="none" xmlns="http://www.w3.org/2000/svg">
<path d="M44.6097 7.01691C47.7866 7.01691 49.4231 8.84741 49.4231 8.84741L48.7493 9.86436C48.7493 9.86436 47.209 8.23724 44.6097 8.23724C41.4328 8.23724 39.2187 10.7796 39.2187 14.2372C39.2187 17.5932 41.4328 20.4406 44.706 20.4406C47.4015 20.4406 49.0381 18.5084 49.0381 18.5084L49.8082 19.5253C49.8082 19.5253 47.9791 21.7626 44.6097 21.7626C40.6627 21.7626 37.7746 18.5084 37.7746 14.3389C37.7746 10.1694 40.759 7.01691 44.6097 7.01691Z" fill="#131313"/>
<path d="M58.0879 7.0169C61.9386 7.0169 64.923 10.1694 64.923 14.2372C64.923 18.4067 61.8424 21.6609 58.0879 21.6609C54.2372 21.6609 51.2528 18.4067 51.2528 14.2372C51.2528 10.2711 54.3334 7.0169 58.0879 7.0169ZM58.0879 20.4406C61.0722 20.4406 63.5752 17.7965 63.5752 14.2372C63.5752 10.8813 61.1685 8.23723 58.0879 8.23723C55.0073 8.23723 52.6006 10.7796 52.6006 14.2372C52.6006 17.7965 55.1036 20.4406 58.0879 20.4406Z" fill="#131313"/>
<path d="M67.6184 7.32185H68.8698L75.7049 17.4913C76.1863 18.2032 76.8601 19.4235 76.8601 19.4235C76.8601 19.4235 76.7639 18.2032 76.7639 17.4913V7.32185H78.1116V21.5591H76.8601L69.9288 11.2879C69.4475 10.5761 68.7736 9.35575 68.7736 9.35575C68.7736 9.35575 68.8698 10.5761 68.8698 11.2879V21.5591H67.5221L67.6184 7.32185Z" fill="#131313"/>
<path d="M84.6579 8.54219H79.8444V7.32185H90.819V8.54219H86.0056V21.5591H84.6579V8.54219Z" fill="#131313"/>
<path d="M103.045 7.32185H107.666C109.784 7.32185 111.325 8.64388 111.325 10.8812C111.325 12.4066 110.651 13.4235 109.592 13.932C110.939 14.3388 111.806 15.7625 111.806 17.4913C111.806 20.0337 109.977 21.4574 107.763 21.4574H103.045V7.32185V7.32185ZM107.666 13.4235C109.014 13.4235 109.977 12.4066 109.977 10.8812C109.977 9.45744 109.11 8.4405 107.666 8.4405H104.393V13.4235H107.666ZM107.859 20.2371C109.495 20.2371 110.458 19.1184 110.458 17.4913C110.458 15.7625 109.399 14.6439 107.763 14.6439H104.297V20.2371H107.859Z" fill="#131313"/>
<path d="M114.694 7.32185H116.041V21.5591H114.694V7.32185Z" fill="#131313"/>
<path d="M119.507 7.32185H120.855V20.3388H127.112V21.5591H119.507V7.32185Z" fill="#131313"/>
<path d="M129.133 7.32185H130.481V21.5591H129.133V7.32185Z" fill="#131313"/>
<path d="M133.755 7.32185H135.103V16.5761C135.103 19.0167 136.643 20.5422 138.953 20.5422C141.264 20.5422 142.804 19.0167 142.804 16.5761V7.32185H144.152V16.5761C144.152 19.7286 142.034 21.7625 139.05 21.7625C135.969 21.7625 133.851 19.7286 133.851 16.5761L133.755 7.32185Z" fill="#131313"/>
<path d="M148.099 7.32185H149.446L153.008 15.6608C153.297 16.3727 153.682 17.3896 153.682 17.3896C153.682 17.3896 154.067 16.3727 154.356 15.6608L157.918 7.32185H159.266L160.325 21.5591H158.977L158.207 11.593C158.111 10.7795 158.207 9.55914 158.207 9.55914C158.207 9.55914 157.822 10.7795 157.533 11.593L154.356 18.915H153.105L149.928 11.593C149.639 10.8812 149.158 9.55914 149.158 9.55914C149.158 9.55914 149.158 10.7795 149.158 11.593L148.387 21.5591H147.04L148.099 7.32185Z" fill="#131313"/>
<path d="M96.3062 7.32185H94.8622L89.9525 21.5591H91.3965L92.3592 18.61V18.5083L92.8406 16.9828L93.2256 15.7625L95.0548 10.5761C95.2473 9.86422 95.5361 8.74558 95.5361 8.74558C95.5361 8.74558 95.8249 9.96591 96.0174 10.5761L97.1727 14.0337V14.1354L97.7503 15.7625L98.713 18.5083L99.7719 21.4574H101.216L96.3062 7.32185Z" fill="#131313"/>
<path d="M2.92537 23.6948C1.77015 22.983 1 21.6609 1 20.1355V15.0508V13.6271L2.15522 14.4406L14.2851 21.8643L26.4149 14.4406C26.5112 14.4406 26.6074 14.4406 26.6074 14.4406C27.0888 14.4406 27.5701 14.8474 27.5701 15.4576V20.3389C27.5701 21.6609 26.8963 22.8813 25.8373 23.5931L16.2104 29.3897C15.6328 29.7965 14.9589 29.9999 14.1888 29.9999C13.5149 29.9999 12.841 29.7965 12.2634 29.4914L2.92537 23.6948Z" fill="#FF2569"/>
<path d="M2.93268 14.9491L8.13118 11.7966L14.1961 8.13557L20.0685 11.6949C20.261 11.7966 20.5498 11.8983 20.8386 11.8983C21.0312 11.8983 21.2237 11.8983 21.4163 11.7966L26.8073 8.84743C27.1924 8.74574 27.4812 8.33896 27.4812 7.93218C27.4812 7.5254 27.1924 7.22032 26.9036 7.01693L16.1215 0.508473C15.5439 0.203389 14.87 0 14.1961 0C13.5222 0 12.8483 0.203389 12.2707 0.508473L2.93268 6.20337C1.77746 6.91524 1.00731 8.23727 1.00731 9.76269V18.5084C0.911038 16.983 1.77746 15.661 2.93268 14.9491Z" fill="#00C7AF"/>
</svg>
